<svg xmlns="http://www.w3.org/2000/svg" width="512" height="512" fill="white"><path d="m361.184 7.836 2.491.848c1.719.589 3.435 1.182 5.15 1.78a932.34 932.34 0 0 0 7.892 2.7c1.677.577 3.353 1.155 5.03 1.734l2.376.806c3.65 1.287 6.398 2.29 8.877 5.296 1 3.375 1 3.375 1 7-2 2.938-2 2.938-5 5-5.729.535-10.156-.764-15.453-2.66l-2.37-.814c-2.48-.853-4.953-1.72-7.427-2.588-2.488-.873-4.977-1.742-7.47-2.6a431.286 431.286 0 0 1-4.63-1.622c-4.274-1.542-4.274-1.542-8.65-.716-1.283 2.635-1.283 2.635-2.297 5.898-.4 1.202-.802 2.403-1.215 3.641l-.614 1.907c-.621 1.92-1.263 3.83-1.91 5.742-2.51 6.354-2.51 6.354-1.964 12.812a75.74 75.74 0 0 0 7.344 2.793l2.35.797c2.599.878 5.202 1.738 7.806 2.597l5.472 1.838A3348.172 3348.172 0 0 0 376 66l3.232 1.063a8758.086 8758.086 0 0 0 37.865 12.36 926.13 926.13 0 0 1 12.554 4.15l2.119.72c1.821.62 3.64 1.247 5.46 1.875 2.767.976 2.767.976 5.77.832 1.513-4.225 3.008-8.455 4.5-12.688l1.3-3.63 1.231-3.506 1.143-3.222c.789-2.82.995-5.046.826-7.954l-3.532-1.13a2521.15 2521.15 0 0 1-12.966-4.204c-1.87-.609-3.74-1.212-5.613-1.81-2.693-.861-5.379-1.74-8.065-2.622l-2.538-.799c-5.758-1.917-5.758-1.917-8.31-4.418-1.53-3.16-1.407-5.57-.976-9.017 1.5-2.438 1.5-2.438 4-4 6.218-.457 11.04.632 16.883 2.668l2.478.838c1.718.585 3.434 1.177 5.148 1.774 2.61.905 5.227 1.783 7.846 2.66 1.677.574 3.353 1.15 5.028 1.728l2.349.783c6.028 2.133 10.296 4.853 14.143 10.111 3.235 9.886.44 19.347-2.873 28.831a333.784 333.784 0 0 0-2.008 6.002c-2.57 7.674-4.78 13.625-11.557 18.418-6.96 3.39-12.713 2.574-19.875.187a462.538 462.538 0 0 1-5.562-2l-.527 1.978c-1.914 7.115-3.997 14.167-6.16 21.21l-.971 3.173c-.78 2.547-1.56 5.093-2.342 7.639l2.307.875c3.395 1.418 6.233 3.413 9.193 5.563l1.856 1.343C446.367 154.25 461.642 168.874 474 186l1.26 1.731c21.846 30.38 36.72 69.255 36.943 106.976l.021 2.422c.018 2.56.024 5.122.026 7.683l.002 2.653c-.016 12.751-.405 25.057-3.252 37.535l-.52 2.417C501.45 379.699 487.696 409.874 466 435l-1.996 2.328A315.954 315.954 0 0 1 457 445l-1.491 1.594c-36.55 38.754-88.01 59.638-140.857 61.59C267.385 509.283 222.647 492.945 185 465l-1.591-1.557c-3.458-2.071-6.764-1.85-10.678-1.812l-2.52-.011a766.546 766.546 0 0 0-5.408 0c-2.854.009-5.708-.001-8.562-.017a4661.55 4661.55 0 0 0-24.34-.039c-4.965 0-9.93-.019-14.895-.05-2.81-.01-5.62.002-8.43.015l-5.177-.03-2.364.029c-3.729-.05-5.845-.406-9.018-2.434C90 457 90 457 89.336 455l.039-2-.04-2c1.042-3.136 2.951-4.2 5.665-6 3.145-.519 3.145-.519 6.718-.546l1.983-.031c2.148-.03 4.295-.031 6.444-.032 1.495-.015 2.99-.032 4.485-.05 3.924-.044 7.848-.064 11.772-.08 4.009-.019 8.017-.06 12.026-.1 7.857-.076 15.714-.126 23.572-.161l-2.193-2.556c-5.176-6.057-10.307-12.09-14.87-18.632l-1.499-2.147C131.778 403.654 115 377.262 115 356l-3.231.027c-10.05.081-20.1.141-30.149.18-5.167.021-10.333.05-15.5.095-4.986.043-9.972.067-14.958.078a764.47 764.47 0 0 0-5.707.043c-2.664.029-5.328.033-7.993.031l-2.382.044c-3.749-.029-5.874-.367-9.067-2.401-2.158-2.248-2.698-3.038-2.638-6.097l-.04-2c1.058-3.184 2.873-4.207 5.665-6a52.22 52.22 0 0 1 8.095-.454l2.426-.002c2.635.003 5.27.034 7.905.065 1.831.008 3.662.014 5.494.018 4.812.015 9.623.054 14.435.098 4.914.041 9.827.06 14.74.08 9.636.043 19.27.11 28.905.195l-.423-2.506-.551-3.283-.548-3.256C105.19 304.44 109.2 277.907 115 252l-1.827-.004c-6.278-.02-12.555-.074-18.833-.149a925.137 925.137 0 0 0-7.028-.043c-3.369-.009-6.736-.05-10.105-.097l-3.17.012c-7.268-.146-7.268-.146-11.198-3.076C61 246 61 246 60.375 243c.644-3.09 1.462-4.776 3.762-6.946 4.279-2.421 9.605-1.777 14.383-1.761l3.677-.046c3.872-.043 7.743-.052 11.615-.06 2.627-.023 5.254-.048 7.881-.076 6.436-.063 12.871-.097 19.307-.111l1.366-3.168c11.73-27.085 26.604-49.844 47.384-70.832l2.15-2.178 2.084-2.072 1.835-1.828c2.904-2.559 6.007-4.708 9.181-6.922l-3.317-.028c-4.073-.04-8.144-.106-12.216-.18-1.76-.028-3.521-.049-5.282-.063a642.391 642.391 0 0 1-7.603-.12l-2.374-.003c-4.955-.132-7.622-.873-11.208-4.606-.664-2-.664-2-.625-4l-.04-2c1.036-3.117 2.98-4.201 5.665-6 2.838-.445 2.838-.445 5.986-.371l3.596.047 3.879.101c1.35.013 2.7.023 4.05.03 5.705.03 11.409.091 17.112.23 18.435.426 32.798-1.13 49.093-10.757 6.842-3.835 14.454-7.37 22.284-5.28 2.438 2.125 2.438 2.125 4 5-.057 3.324-.13 5.789-2.11 8.543-2.743 2.114-5.837 3.04-9.077 4.144-8.645 3.1-16.721 6.988-24.813 11.313l-1.868.993c-43.06 23.095-73.148 63.421-87.566 109.534-14.534 48.36-7.107 98.17 15.824 142.505 6.237 11.499 13.957 22.172 22.61 31.968l1.374 1.573c6.67 7.598 13.597 14.24 21.626 20.427l2.84 2.352c36.814 29.85 86.451 42.501 133.194 37.7C369.25 485.478 407.102 469.156 436 442l1.834-1.722c33.128-31.439 56.011-76.492 57.456-122.664.08-3.83.095-7.658.085-11.489l-.002-2.452c-.042-13.865-1.09-27.156-4.373-40.673l-.617-2.566C484.05 235.142 472.244 211.349 456 191l-2.07-2.688c-24.764-31.433-60.545-52.818-99.118-62.625l-2.875-.734c-17.406-4.212-34.163-4.119-51.951-3.761-3.208.06-6.415.096-9.623.128l-2.976.082c-6.73.05-6.73.05-10.003-2.203-2.04-3.241-1.919-5.454-1.384-9.199 3.59-4.48 6.788-4.93 12.26-5.687 7.655-.641 15.315-.516 22.99-.438 1.728.01 3.456.02 5.184.027 4.189.022 8.377.057 12.566.098l.527-2.23c1.728-7.136 3.781-14.075 6.16-21.02l.971-2.871c.777-2.295 1.557-4.587 2.342-6.879l-2.195-.516c-12.412-3.11-12.412-3.11-16.016-8.191C317.583 56.892 316.216 52.228 317 46c1.156-4.433 2.565-8.762 4.053-13.091.696-2.031 1.37-4.069 2.04-6.108C325.887 18.5 328.406 11.063 336 6c8.074-3.943 17.154-.977 25.184 1.836ZM355 77c-2.731 6.394-5.043 12.91-7.25 19.5l-.819 2.43c-1.414 3.949-1.414 3.949-1.931 8.07l1.993.44c18.98 4.236 36.054 10.08 54.007 17.56l10-30c-6.741-2.697-13.39-5.217-20.277-7.453l-2.828-.925a3588.73 3588.73 0 0 0-5.856-1.905c-2.995-.973-5.987-1.954-8.978-2.936l-5.713-1.86-2.709-.89c-.828-.266-1.656-.534-2.51-.81l-2.203-.716c-2.078-.632-2.078-.632-4.926-.505Z"/><path d="M419.528 189.58a405.097 405.097 0 0 0 4.5 4.256c28.992 27.562 44.382 67.777 45.898 107.3C470.929 343.27 455.702 384.111 427 415l-1.395 1.511c-27.032 28.99-66.71 46.73-106.211 48.613-46.363 1.373-87.268-14.38-121.304-45.811C170.708 392.816 152.173 353.363 151 315l-.062-2.008C149.87 272.446 162.315 232.97 189 202l2.453-2.86c27.515-31.375 66.25-48.973 107.485-52.952 44.42-2.184 88.417 12.24 120.59 43.391ZM254 174c1.214 3.907 2.644 7.364 4.625 10.938 2.15 4.212 3.06 7.261 2.375 12.062-2 3-2 3-5.375 3.75-5.453.376-5.453.376-7.625-.75a279.611 279.611 0 0 1-2-5 362.857 362.857 0 0 0-3.625-6.812l-.984-1.811A1805.97 1805.97 0 0 0 239 182c-27.638 11.922-46.65 39.351-59.918 65.11-1.15 3.071-1.312 3.945-.082 6.89 1.641 1.018 1.641 1.018 3.71 1.527l2.274.713c1.586.463 3.172.924 4.758 1.383 5.803 1.823 5.803 1.823 8.305 4.87 1.243 3.27.985 5.188-.047 8.507-3.775 2.517-5.506 2.33-10 2-2.874-.663-5.645-1.555-8.437-2.5l-2.217-.723A669.637 669.637 0 0 1 172 268c-8.556 29.603-7.84 66.44 7 94 3.934-1.139 7.35-2.691 10.938-4.625 4.214-2.136 7.269-3.238 12.062-2.375 2.5 1.438 2.5 1.438 4 4 .021 3.075-.408 5.987-1 9l-2.074.773c-3.376 1.415-6.526 3.1-9.738 4.852l-1.811.984c-1.46.795-2.919 1.593-4.377 2.391 1.492 4.3 3.736 7.832 6.375 11.5l1.324 1.843C210.681 412.1 232.492 429.833 258 439l.58-1.697a996.7 996.7 0 0 1 2.67-7.615l.91-2.67.918-2.569.825-2.364c1.34-2.545 2.612-3.657 5.097-5.085 6.327.327 6.327.327 9 3 .746 6.592-1.021 11.913-3.125 18.145-1.021 2.835-1.021 2.835-.875 5.855 30.705 9.575 64.836 6.1 94-7l-1.75-3.508-2.25-4.617-1.156-2.305c-2.088-4.325-3.51-7.653-2.844-12.57 1.625-2.375 1.625-2.375 4-4 3-.5 3-.5 6 0 3.976 3.2 5.975 7.293 8.25 11.75l1.102 2.113c.89 1.71 1.77 3.423 2.648 5.137 4.3-1.492 7.832-3.736 11.5-6.375l1.843-1.324c6.703-4.924 12.756-10.453 18.657-16.301l2.39-2.352c9.566-10.013 17.127-22.205 23.36-34.523l1.016-1.999c1.633-3.368 2.234-5.3 2.234-9.126l-2.972-.978a333331.734 333331.734 0 0 1-56.357-18.549 34408.668 34408.668 0 0 0-12.76-4.2l-2.424-.797c-4.45-1.466-8.893-2.947-13.333-4.443l-2.924-.984c-1.869-.63-3.737-1.26-5.605-1.895l-2.539-.854-2.248-.762c-1.839-.632-1.839-.632-3.838-.538a71.703 71.703 0 0 0-3.062 3.688c-3.74 4.44-7.783 6.797-12.938 9.312l.438 3.945.562 5.18c.095.856.19 1.712.29 2.594 1.305 12.123 1.305 12.123-.477 15.594-2.314 2.154-3.665 2.537-6.813 2.687-2.687-.437-2.687-.437-5-2-1.705-5.61-2.51-11.182-3.125-17l-.262-2.348c-.209-1.883-.412-3.768-.613-5.652-.797-.315-1.593-.63-2.414-.953-10.532-4.254-18.381-8.765-23.961-18.922-3.093-7.43-2.62-17.687-.89-25.398.556-2.76.556-2.76-1.106-4.817l-2.066-1.847-2.274-2.083L272 283a577.146 577.146 0 0 0-5.535-4.82c-3.385-2.993-6.67-6.088-9.965-9.18-5.773-5.421-5.773-5.421-11.687-10.687l-1.762-1.547a187.727 187.727 0 0 0-3.542-2.987 341.491 341.491 0 0 1-5.009-4.216l-1.641-1.306c-2.157-1.873-3.712-3.455-4.236-6.316-.045-2.927.05-5.327 1.44-7.941 3.066-1.583 5.535-1.29 8.937-1 2.844 1.723 2.844 1.723 5.5 4.063l2.863 2.496a204.084 204.084 0 0 1 7.992 7.789c1.653 1.66 3.368 3.188 5.145 4.715 4.105 3.535 8.05 7.23 12 10.937 8.825 8.52 8.825 8.52 18.5 16l3.188-1.875c4.846-2.48 9.688-2.981 15.054-3.535 3.085-.325 3.085-.325 4.758-3.59a179.748 179.748 0 0 0 2.287-6.506l.667-1.993c.73-2.185 1.452-4.372 2.175-6.56l1.54-4.628c1.084-3.254 2.164-6.508 3.241-9.763 1.352-4.083 2.709-8.165 4.068-12.246A8094.477 8094.477 0 0 0 338 198l.717-2.181c1.529-4.657 3.048-9.317 4.56-13.98l1.156-3.531c.342-1.06.683-2.12 1.036-3.21l.902-2.783c.76-2.398.76-2.398.629-5.315-30.932-7.143-63.848-7.184-93 7Zm108-1c-3.043 9.27-6.084 18.541-9.125 27.813l-.684 2.083A27481.03 27481.03 0 0 0 328 277l2.34 2.328c6.976 7.007 11.51 13.372 12.27 23.473l.233 2.962L343 308c43.029 14.418 43.029 14.418 86.128 28.621 1.533.5 3.066 1.002 4.598 1.506 2.068.678 4.137 1.35 6.208 2.021l3.376 1.1c2.706.887 2.706.887 5.69.752 10.325-33.865 4.591-72.217-11.863-103.18C421.113 209.703 396.332 185.144 365 173h-3Zm-61 118c-3.447 3.13-6.763 6.62-7.238 11.39-.158 6.091-.027 9.884 4.238 14.61 5.248 4.623 8.348 5.353 15.238 5.281 5.15-.524 7.776-3.161 11.075-6.906 3.475-4.891 3.285-9.502 2.687-15.375-2.421-4.932-5.704-8.533-10.781-10.793-5.559-1.82-10.143-1.073-15.219 1.793ZM14.592 129.482l2.909-.02c3.168-.018 6.335-.007 9.503.007l6.609-.012c4.614-.006 9.228.003 13.842.022 5.917.022 11.834.01 17.752-.015 4.547-.014 9.095-.01 13.642 0 2.182.003 4.364 0 6.547-.01 3.047-.01 6.094.006 9.141.028l2.738-.024c6.096.083 6.096.083 9.258 2.39 1.923 2.82 2.397 4.74 2.467 8.152-2.13 4.565-2.13 4.565-5 6-1.334.1-2.672.14-4.01.147l-2.54.022-2.793.008-2.937.02c-3.217.02-6.433.031-9.65.041l-3.322.013c-5.801.02-11.603.035-17.404.044-6.001.011-12.003.046-18.004.085-4.607.026-9.213.035-13.82.038-2.213.005-4.426.017-6.639.035-3.093.025-6.185.024-9.279.017l-2.78.039c-6.206-.051-6.206-.051-9.387-2.413-1.54-2.25-2.003-3.393-1.998-6.096l-.066-2c2.205-7.012 9.191-6.572 15.221-6.518ZM40.53 182.58l2.316-.026c2.53-.023 5.058-.024 7.588-.023a2109.2 2109.2 0 0 1 16.325-.032c4.723.006 9.444-.025 14.167-.065 3.63-.026 7.26-.029 10.889-.025 1.741-.002 3.482-.012 5.223-.03a447.16 447.16 0 0 1 7.304.006l2.18-.04c3.7.062 5.214.41 7.96 2.967 2.07 3.666 1.628 5.693.518 9.688-1.895 2.585-2.888 2.963-6 4-2.289.1-4.58.138-6.87.145l-2.106.01c-2.297.01-4.594.012-6.891.013l-4.794.01c-3.35.006-6.702.008-10.052.007-4.29 0-8.58.014-12.869.031-3.301.011-6.602.013-9.903.013-1.582 0-3.163.005-4.744.013-2.214.01-4.428.007-6.642 0l-3.815.005C35.936 198.921 33.12 198.12 30 195c-.3-2.059-.3-2.059-.312-4.437l-.051-2.372C30 186 30 186 31.052 184.39c2.956-2.108 5.978-1.823 9.477-1.809ZM8.877 287.596c1.812-.02 1.812-.02 3.66-.038l3.96.008 4.06-.015c2.838-.01 5.674-.007 8.512.003 3.633.011 7.265-.009 10.898-.038 2.796-.018 5.591-.018 8.387-.012 1.99 0 3.98-.017 5.97-.034l3.67.028h3.23c3.48.63 4.661 1.709 6.776 4.502.5 3.5.5 3.5 0 7-2.115 2.793-3.295 3.873-6.777 4.501h-3.23l-3.67.03-3.952-.035c-1.355 0-2.71.002-4.064.005-2.836 0-5.67-.012-8.506-.034a962.91 962.91 0 0 0-10.902-.013c-2.795.007-5.591-.001-8.387-.014-1.991-.006-3.983-.002-5.974.002l-3.661-.038-3.227-.016C3 303 3 303 1.158 301.61c-1.528-2.124-1.559-3.513-1.533-6.11l-.023-2.344c.974-5.275 4.495-5.536 9.275-5.56ZM53.408 392.596l2.69-.038 2.898.008 2.985-.015c2.084-.007 4.168-.006 6.252.003 3.189.008 6.377-.02 9.566-.052 2.024-.002 4.048-.001 6.072.002l2.892-.034c6.575.07 6.575.07 9.839 2.342 2.064 3.23 1.933 5.44 1.398 9.188-1.398 2.188-1.398 2.188-4 4-3.375.59-6.71.536-10.129.496l-2.988.005a681.625 681.625 0 0 1-6.246-.034 727.02 727.02 0 0 0-9.573-.008c-2.022-.006-4.045-.015-6.068-.025l-2.898.008-2.69-.038-2.366-.016C48.477 407.9 47.584 407.04 46 405c-.398-2.156-.398-2.156-.375-4.5l-.023-2.344c.828-4.485 3.558-5.53 7.806-5.56Z"/></svg>