<svg xmlns="http://www.w3.org/2000/svg" width="512" height="512" fill="white"><path d="M181 11c4.774 4.898 7.518 10.692 10 17l1.984-.438c18.145-3.69 18.145-3.69 25.516.563 4.599 3.404 7.171 6.84 8.098 12.57L227 44l3.697-.048c4.566-.054 9.132-.088 13.698-.117 1.969-.015 3.938-.035 5.906-.061 2.845-.037 5.69-.054 8.535-.067.867-.015 1.734-.03 2.627-.047 8.131-.002 16.385 1.581 22.935 6.688 6.6 6.81 8.742 14.01 8.7 23.265l-.01 3.78-.026 3.92-.013 3.978c-.012 3.236-.028 6.473-.049 9.709l2.956-1.07c33.821-12.068 69.838-8.841 102.157 6.125 30.323 14.734 53.296 42.175 64.562 73.669 11.159 32.955 9.429 68.777-5.644 100.225-5.957 12.012-13.167 23.584-22.906 32.926-3.659 3.537-6.776 6.906-7.352 12.215.299 6.524 3.375 11.76 7.227 16.91 2.7 1.35 5.45 1.631 8.418 2.11 8.575 2.957 11.916 9 16.082 16.577l3.691 6.52 1.903 3.4c3.063 5.453 6.209 10.857 9.344 16.268l3.757 6.52 1.892 3.283 3.873 6.726 5.853 10.159 1.885 3.275c2.77 4.805 5.551 9.6 8.396 14.361l1.407 2.36c.838 1.4 1.682 2.799 2.531 4.193 5.77 9.635 6.585 20.347 4.35 31.264-3.097 8.717-9.099 15.068-17.132 19.484-9.047 4.102-18.812 4.777-28.25 1.5-12.486-5.726-17.888-15.187-24.152-26.79-3.034-5.601-6.245-11.093-9.473-16.585-7.252-12.373-14.367-24.821-21.466-37.282-1.845-3.23-3.697-6.456-5.554-9.679l-1.692-2.945c-1.039-1.805-2.08-3.61-3.122-5.413-.456-.793-.912-1.586-1.38-2.404l-1.2-2.078c-2.361-4.48-2.514-8.871-1.961-13.824a78.026 78.026 0 0 1 2-3.75c.97-1.938.97-1.938 1-4.25-2.458-5.89-5.501-11.428-11.012-14.895-2.903-1.073-4.356-1.403-7.363-.98l-2.61.352c-2.88.5-5.746 1.053-8.613 1.623-24.3 4.792-50.368 3.733-73.402-6.1l-.5 2.938c-1.706 5.87-6.075 11.124-11.38 14.126-5.744 2.735-10.44 3.51-16.76 3.444l-2.813.019c-3.088.016-6.175.003-9.264-.01a3521.874 3521.874 0 0 1-24.737.02c-6.31-.01-12.62 0-18.93.006-11.273.008-22.547-.005-33.82-.025a8610.994 8610.994 0 0 0-30.627.003c-11.872.022-23.745.03-35.618.018-6.278-.006-12.557-.007-18.835.006-5.903.012-11.806.004-17.71-.02a994.692 994.692 0 0 0-6.49.006c-2.96.01-5.917-.003-8.876-.023l-2.579.027c-7.662-.1-14.111-2.474-19.873-7.598-6.763-7.358-7.78-16.866-7.69-26.45l-.016-3.35c-.014-3.676.001-7.352.016-11.028-.003-2.647-.009-5.294-.016-7.941-.014-6.426-.006-12.852.009-19.278.017-7.491.013-14.982.01-22.473-.006-13.37.008-26.74.032-40.109.024-12.959.031-25.918.021-38.877a23178.813 23178.813 0 0 1 .006-46.916l.002-2.248c.005-5.216.003-10.433-.001-15.649-.005-6.359 0-12.718.02-19.077.01-3.242.014-6.483.008-9.725-.006-3.52.006-7.038.023-10.557l-.018-3.082c.078-8.828 1.958-16.403 7.531-23.384 7.538-7.208 16.69-7.948 26.55-7.89.926 0 1.851.002 2.804.004 2.945.005 5.89.018 8.834.03A7513.727 7513.727 0 0 1 92 44l.401-3.305c.927-5.73 3.5-9.166 8.098-12.57 8.247-4.758 18.704-2.064 27.5-.125l1.172-2.45 1.578-3.238 1.547-3.199c4.21-7.697 9.937-11.98 18.121-15.008C161.258 1.365 172.394 3.956 181 11Zm-32.582 11.469c-4.545 5.344-4.895 9.76-5.723 16.562C142 42 142 42 139 44c-5.377.373-10.32-.465-15.563-1.5-7.159-1.433-7.159-1.433-14.437-1.5l-2 2v20h105V43c-1.816-2.278-1.816-2.278-4.434-2.047-5.178.512-10.267 1.125-15.379 2.11C181.632 45.087 181.632 45.087 177 42c-.59-2.828-.59-2.828-.938-6.25-.932-6.875-2.435-10.59-7.875-15.063-6.795-3.597-13.955-3.616-19.769 1.782ZM43.188 64c-1.915 3.225-2.314 5.834-2.322 9.504l-.014 2.813v3.095l-.01 3.284c-.011 3.65-.015 7.301-.019 10.951l-.02 7.83c-.02 7.844-.03 15.689-.039 23.534l-.015 11.081a46303.989 46303.989 0 0 0-.044 46.397l-.002 2.4c-.008 12.831-.033 25.662-.066 38.494a17426.81 17426.81 0 0 0-.054 39.518c-.002 7.396-.01 14.792-.036 22.188-.024 6.957-.028 13.914-.018 20.871 0 2.555-.006 5.11-.02 7.664-.017 3.486-.01 6.97.003 10.456l-.033 3.068c.056 6.131.79 9.906 4.521 14.852 3.576 2.994 8.393 2.28 12.837 2.26.903.005 1.805.008 2.735.012 3.03.01 6.06.007 9.09.003l6.51.015c5.898.014 11.797.014 17.695.012 4.92-.001 9.842.003 14.762.008 11.607.011 23.213.012 34.82.006 11.982-.006 23.964.006 35.946.027 10.28.018 20.56.024 30.841.02 6.143-.001 12.286.001 18.43.015 5.775.013 11.551.011 17.327-.002 2.122-.002 4.243 0 6.365.009 2.893.01 5.785.002 8.678-.01l2.553.022c4.617-.043 7.681-.374 11.411-3.397 1.965-3.252 3-5.187 3-9a86.819 86.819 0 0 0-6.688-4c-6.943-3.94-12.844-8.524-18.8-13.813-3.315-2.886-4.78-3.312-9.06-3.294l-2.902.005-3.194.02-3.356.01c-2.41.007-4.821.016-7.232.027-3.811.018-7.622.028-11.433.036-10.837.025-21.675.06-32.512.105-6.623.027-13.245.044-19.867.055-2.53.006-5.059.016-7.588.03-3.531.019-7.063.026-10.594.03l-3.188.027-2.91-.004-2.532.01C134 311 134 311 131 309c-1.06-3.016-1.095-4.653-.25-7.75C132 299 132 299 135 298c1.383-.1 2.77-.146 4.157-.158l2.562-.03 2.801-.017 2.957-.03c3.23-.032 6.46-.057 9.691-.081l6.713-.063c5.894-.056 11.787-.105 17.681-.153 6.013-.05 12.025-.106 18.038-.161 11.8-.108 23.6-.21 35.4-.307-1.557-4.982-4.146-9.466-8-13-3.039-1.11-5.853-1.065-9.063-.984l-2.702-.028c-2.937-.022-5.87.013-8.805.047-2.045-.005-4.09-.013-6.134-.026a1507.22 1507.22 0 0 0-16.123.036c-6.533.034-13.067.014-19.6.001-5.083-.009-10.165-.01-15.247.015l-2.83.008c-1.742.006-3.484.016-5.227.03-3.598.008-6.807-.125-10.269-1.099-.783-3.629-1.302-6.157-.034-9.697C133 270 133 270 136.626 269.36c1.536-.033 3.073-.037 4.61-.02l2.542-.032c2.776-.029 5.551-.023 8.327-.016 1.924-.013 3.848-.028 5.772-.046 5.065-.04 10.13-.05 15.195-.054 5.168-.01 10.336-.047 15.504-.082 10.141-.064 20.283-.098 30.424-.111l-.618-2.051-.813-2.707-.806-2.676a415.167 415.167 0 0 1-2.826-10.003l-.972-3.56c-.826-3.227-1.438-6.474-2.025-9.753l-.536-2.985L210 233l-2.903-.004c-9.02-.017-18.04-.06-27.06-.128-4.638-.034-9.275-.06-13.913-.064a1466.28 1466.28 0 0 1-13.421-.077 498.753 498.753 0 0 0-5.126-.013c-2.39.005-4.778-.021-7.168-.055l-2.15.027c-1.975-.047-1.975-.047-5.259-.686-2.01-2.338-2.01-2.338-3-5 1.2-5.2 1.2-5.2 3-7 2.372-.125 4.716-.186 7.09-.205l2.247-.03c2.462-.032 4.924-.057 7.386-.081l5.107-.063c4.49-.056 8.98-.105 13.47-.153 4.577-.05 9.155-.106 13.733-.161 8.99-.108 17.978-.209 26.967-.307v-14l-6.837-.06c-7.448-.067-14.896-.145-22.344-.228-4.516-.05-9.033-.096-13.55-.134-4.357-.037-8.714-.083-13.07-.136-1.664-.019-3.328-.034-4.992-.045a1076.07 1076.07 0 0 1-6.982-.078l-2.092-.007c-3.6-.063-5.046-.254-8.133-2.312-1.07-3.047-1.107-4.637-.188-7.75C132 192 132 192 134 191a177.81 177.81 0 0 1 7.387-.205l2.306-.03c2.522-.032 5.043-.057 7.565-.081l5.238-.063c4.6-.056 9.2-.105 13.8-.153 4.691-.05 9.383-.106 14.075-.161 9.21-.108 18.42-.21 27.629-.307l1-3.484 1.332-4.598.654-2.287c1.605-5.513 3.568-10.766 5.9-16.018 1.205-2.827 2.157-5.694 3.114-8.613l-3.397-.018c-10.55-.057-21.1-.13-31.651-.218a4885.97 4885.97 0 0 0-16.274-.11c-5.232-.026-10.465-.067-15.697-.117-1.999-.017-3.997-.028-5.996-.035-2.795-.01-5.588-.037-8.383-.07l-2.517.005c-5.663-.094-5.663-.094-7.77-1.81-1.776-2.198-2.11-3.822-2.315-6.627.977-2.706 1.405-3.703 4-5 3.086-.055 6.148-.049 9.232.001l5.959.067 3.204.038c6.771.07 13.543.077 20.314.094 5.95.019 11.898.06 17.846.153 5.755.088 11.506.112 17.261.094 2.188.004 4.375.031 6.563.082 12.586.716 12.586.716 23.481-4.486 4.779-4.965 4.779-4.965 7.14-11.043l-1.74-.002c-13.972-.015-27.943-.057-41.914-.13-6.756-.035-13.512-.06-20.268-.064-6.517-.003-13.033-.032-19.549-.077-2.49-.013-4.98-.018-7.47-.013-3.48.005-6.958-.021-10.437-.055l-3.141.027c-2.592-.042-4.952-.118-7.481-.686-2.199-2.342-2.199-2.342-3-5 .563-3.188.563-3.188 2-6 2.915-1.878 5.193-2.25 8.623-2.247l2.8-.013 3.05.017 3.228-.006c3.526-.003 7.05.007 10.576.019h7.346c5.134.002 10.267.01 15.401.024 6.582.017 13.164.021 19.746.02 5.057 0 10.114.006 15.171.013l7.281.006c3.392.002 6.784.011 10.176.022l3.044-.002 2.808.013 2.428.005c2.516.14 4.865.58 7.322 1.129l2 6 3.125-2.438c5.083-3.823 10.435-7.202 15.8-10.609A329.234 329.234 0 0 0 278 102a53.19 53.19 0 0 0 .398-7.203l.01-2.168c.001-1.516-.004-3.033-.017-4.55-.016-2.306 0-4.612.02-6.919-.003-1.475-.007-2.95-.013-4.426l.019-2.074c-.067-4.603-1.03-7.737-3.417-11.66-3.444-3.12-6.506-4.128-11.104-4.114h-2.487l-2.67.016-2.746.005c-2.893.005-5.787.018-8.68.03-1.962.006-3.924.01-5.885.014-4.81.011-9.619.028-14.428.049l-.148 2.957-.227 3.855c-.07 1.265-.14 2.53-.21 3.833C226 73 226 73 224 76c-2.987 1.12-5.875 1.128-9.041 1.134l-3.08.013-3.361-.002-3.554.01c-3.213.008-6.426.012-9.638.012-2.009.001-4.017.003-6.025.006-7.008.009-14.017.013-21.025.012-6.529 0-13.058.01-19.587.026-5.61.013-11.219.018-16.828.018-3.349 0-6.697.002-10.046.013-3.734.01-7.469.007-11.203 0-1.108.007-2.215.012-3.356.018l-3.088-.013-2.674.002c-2.829-.282-4.951-.99-7.494-2.249-1.48-2.962-1.353-5.835-1.563-9.125l-.253-3.883L92 59c-5.73-.074-11.458-.129-17.188-.165a1037.61 1037.61 0 0 1-5.842-.061c-2.805-.037-5.61-.054-8.415-.067l-2.624-.047c-5.927-.002-10.557.72-14.743 5.34Zm210.464 75.016c-22.16 24.934-30.986 54.737-29.847 87.744.814 13.508 4.558 26.007 10.195 38.24l1.438 3.203c5.367 11.378 12.967 20.7 21.562 29.797l2.113 2.309c19.652 20.729 49.175 31.526 77.282 32.66 10.519.216 20.992-1.28 31.23-3.594 9.811-2.217 17.226-2.054 26.375 2.625 5.408 3.898 8.561 9.199 11.738 14.96 1.1 2.178 1.1 2.178 3.262 3.04 2.711-1.223 2.711-1.223 5.625-2.938l3.04-1.714L420 344l-1.496-3.176-1.942-4.137-.986-2.091c-3.774-8.055-4.964-15.404-2.639-24.159 1.814-4.773 4.994-7.998 8.47-11.66C442.97 275.687 455.61 245.81 455 214c-1.5-33.783-16.562-62.582-41.106-85.344-47.143-41.213-118.287-33.258-160.242 10.36Zm173.582 216.941-3.195 1.873-3.289 1.983-3.336 1.947c-5.938 3.312-5.938 3.312-10.414 8.24.332 3.983 1.847 6.852 3.852 10.262l1.806 3.1 1.967 3.325c.68 1.162 1.359 2.324 2.037 3.487 1.41 2.414 2.822 4.827 4.237 7.238 3.232 5.511 6.414 11.051 9.601 16.588l3.719 6.441a4932.55 4932.55 0 0 1 6.798 11.818c1.008 1.758 2.018 3.516 3.028 5.274 1.259 2.192 2.515 4.384 3.77 6.578 8.02 15.46 8.02 15.46 20.998 26.264 5.652 1.108 10.313.598 15.437-2.063 4.533-3.811 8.28-7.501 9.037-13.638.323-7.796-1.704-12.688-5.662-19.299l-1.663-2.905A720.177 720.177 0 0 0 481 424a2674.63 2674.63 0 0 1-2.496-4.29c-1.574-2.698-3.164-5.388-4.762-8.073-3.361-5.662-6.643-11.37-9.93-17.075l-1.904-3.301c-3.032-5.26-6.06-10.523-9.077-15.793-1.38-2.41-2.763-4.819-4.146-7.228-.981-1.712-1.96-3.426-2.938-5.14l-1.798-3.131-1.583-2.768c-1.31-2.296-1.31-2.296-3.366-4.201-4.839-.542-7.626.514-11.766 2.957Z"/><path d="M396 141c4.175 3.509 8.117 7.172 12 11l2.254 2.215c5.869 6.167 9.824 13.303 13.746 20.785l1.473 2.746c10.488 21.073 11 47.196 3.76 69.342C425.078 258.88 419.517 269.772 411 279l-1.33 1.502c-16.86 18.924-39.242 29.14-64.42 31.31-25.11 1.412-49.043-6.494-68.25-22.812-17.224-15.602-30.827-37.74-32.139-61.518-.98-28.665 4.908-52.996 24.514-74.732C301.86 118.043 357.634 111.957 396 141Zm-83 1-3.195 1.063c-19.571 7.358-34.104 22.65-43.368 41.039A102.491 102.491 0 0 0 263 193l-.965 2.863c-5.808 20.636-2.14 42.011 7.88 60.563 2.59 4.568 5.637 8.622 9.085 12.574l2.348 2.938c12.953 15.51 33.49 23.05 53.027 24.875 22.096 1.066 42.585-6.407 59-21.063 15.953-14.955 24.65-35.576 25.66-57.25-.227-22.657-8.913-43.638-25.035-59.5-16.91-15.216-37.364-22.134-59.871-21.387-7.371.436-14.143 2.063-21.129 4.387ZM265 373c5.973 5.522 10.459 11.224 13 19l.574 1.754c2.256 11.9.578 23.239-5.574 33.621-1.961 2.574-3.974 5.101-6 7.625l2.93 1.469C290.954 447.206 305.425 462.334 313 485l.75 2.18c1.688 5.65 2.054 11.987 1.25 17.82-1.881 2.532-2.938 2.98-6 4-1.879.095-3.76.13-5.642.134l-3.56.013-3.91-.002-4.116.01c-3.727.01-7.454.012-11.182.012-3.11.001-6.222.005-9.334.008-7.34.009-14.681.011-22.022.01-7.573 0-15.145.01-22.718.026-6.5.013-13.002.018-19.503.018-3.883 0-7.766.002-11.649.013-3.652.01-7.305.01-10.957.003-1.978-.002-3.956.006-5.934.015l-3.577-.013-3.103.002c-2.975-.265-5.124-.924-7.793-2.249-2.72-3.778-2.11-7.243-1.602-11.672 3.563-19.709 13.754-38.413 30.27-50.238C206.66 436 206.66 436 211 436l-1.863-2.563c-8.217-11.45-12.569-20.983-10.735-35.656 2.352-10.8 7.94-19.876 16.598-26.781 15.818-10.043 35.034-9.49 50 2Zm-46 15c-4.9 6.711-6.765 13.282-5.66 21.54 1.825 7.704 6.27 13.433 12.762 17.91 6.012 3.115 12.26 3.537 18.898 2.55 8.525-2.71 13.381-7.635 17.875-15.125 2.444-6.482 2.42-14.933-.438-21.25-4.182-6.991-9.973-12.084-17.875-14.313-9.886-1.205-18.557 1.357-25.562 8.688Zm-27.45 78.793c-6.715 8.58-11.003 16.38-12.55 27.207h120c-2.894-13.022-7.555-21.653-17-31l-1.793-1.895c-4.217-4.124-8.99-6.77-14.207-9.418l-2.014-1.023c-24.263-11.782-54.946-3.815-72.435 16.129ZM106 373c8.183 6.332 13.233 16.202 14.816 26.371C121.87 414.444 117.114 424.365 108 436l2.68.848c18.133 6.293 31.414 21.316 39.657 38.187 3.988 8.518 8.9 20.714 5.987 30.156-1.807 2.468-3.429 2.87-6.324 3.809-2.788.254-2.788.254-5.883.26l-3.568.022-3.889-.007-4.116.015c-3.719.014-7.437.014-11.156.012-3.107-.001-6.213.003-9.32.008-7.328.011-14.657.012-21.985.006-7.558-.006-15.115.006-22.673.027-6.493.018-12.986.024-19.478.02-3.876-.001-7.753.001-11.629.015-3.644.013-7.288.011-10.933-.002-1.973-.004-3.946.008-5.919.02l-3.568-.022h-3.095C9.24 508.899 6.548 507.549 4 505c-1.762-16.496 5.236-33.03 15.313-45.813C28.793 448.303 39.159 441.294 52 435c-.447-.51-.895-1.02-1.355-1.547-9.12-10.966-11.987-21.37-10.889-35.394 1.319-11.14 7.782-19.53 16.178-26.524C71.306 360.115 90.953 362.127 106 373Zm-44 13c-6.317 8.17-8.026 14.65-7 25 2.594 8.537 7.692 13.466 15.188 17.875 7.247 2.139 14.158 2.269 21.124-.875 6.639-3.81 11.168-8.66 13.688-15.938 1.97-8.061.494-14.519-3.422-21.765-4.122-6-10.582-9.598-17.578-11.297-7.965-.869-15.904 1.852-22 7Zm-27 79-1.969 1.934C25.58 474.794 22.327 483.527 20 494h120c-2.097-14.68-10.643-27.459-22.438-36.375-4.977-3.385-10-6.316-15.562-8.625l-2.297-.969C76.438 440.03 51.797 448.231 35 465Z"/><path d="M353.754 154.672c8.342 4.932 14.683 11.917 17.246 21.328.237 2.637.381 5.117.375 7.75l-.003 2.126c-.178 7.857-2.52 13.952-7.372 20.124l2.055 1.215C382.879 217.49 393.033 229.922 398 249c.998 4.407 1.556 7.729-.313 12-1.687 2-1.687 2-3.687 3-1.46.1-2.926.14-4.39.147l-2.795.022-3.076.008-3.233.02c-3.541.02-7.082.031-10.623.041l-3.657.013c-6.385.02-12.77.035-19.154.044-6.607.011-13.214.046-19.82.085-5.07.026-10.14.035-15.21.038-2.436.005-4.873.017-7.309.035-3.404.025-6.808.024-10.213.017l-3.064.039c-6.823-.051-6.823-.051-10.08-2.406-2.55-3.899-1.967-7.62-1.376-12.103 3.952-17.939 13.163-30.093 28.047-40.25 2.453-1.454 4.175-2.318 6.953-2.75l-1.242-1.977-1.633-2.648-1.617-2.602c-4.342-7.986-4.875-16.796-2.856-25.625 3.285-9.107 9.645-15.951 18.348-20.148 8.914-3.502 19.042-3.39 27.754.672ZM323.5 175.188c-2.171 4.478-2.366 8.957-1.5 13.812 1.967 5.074 5.055 8.961 9.977 11.379 5.222 1.603 10.219 1.234 15.336-.504 4.125-2.879 7.065-6.009 8.687-10.875.599-5.616.629-10.671-2.617-15.46-4.022-4.477-8.344-6.821-14.383-7.165-6.62.377-11.769 3.307-15.5 8.813ZM310 227l-1.863 1.45c-5.952 5.238-8.991 12.417-12.137 19.55v1h86c-3.967-11.9-10.61-21.412-21.879-27.574-16.882-7.846-35.39-6.137-50.121 5.574ZM82 269c2.232 1.606 4.152 3.34 6.105 5.273 1.879 1.712 3.58 2.71 5.895 3.727l1.688-1.969c7.016-7.68 7.016-7.68 11.624-7.906 3.688.875 3.688.875 6.25 3C115 274 115 274 115.189 276.813c-1.465 3.93-3.64 6.332-6.497 9.355-1.868 1.928-1.868 1.928-3.691 4.832l1.934 1.723c6.715 6.275 6.715 6.275 8.379 11.027-.395 4.1-1.132 5.625-4.313 8.25-3.25.75-3.25.75-7 0-2.23-1.608-4.153-3.34-6.105-5.273-1.879-1.712-3.58-2.71-5.895-3.727l-1.68 1.715-2.195 2.223-2.18 2.214c-2.648 2.516-3.607 2.817-7.32 3.16C75 312 75 312 72.562 310.375 71 308 71 308 70.313 305.25c.895-4.226 2.922-6.249 5.864-9.32 1.778-1.882 3.31-3.833 4.824-5.93l-1.934-1.898-2.504-2.477-2.496-2.46c-2.455-2.573-2.995-3.508-3.379-7.04C71 273 71 273 72.564 270.625c3.52-2.347 5.268-2.39 9.437-1.625ZM82 190c2.871 2.188 2.871 2.188 5.438 5l2.62 2.813L92 200l1.355-1.172a613.103 613.103 0 0 1 3.778-3.226 154.758 154.758 0 0 0 4.43-3.977c3.094-2.063 4.784-2.169 8.437-1.625 2.313 1.125 2.313 1.125 4 3 1.09 3.342 1.343 5.164 0 8.438-2.72 3.484-5.8 6.52-9 9.562 1.385 3.189 2.977 5.075 5.563 7.375 2.46 2.394 3.387 3.476 4.5 6.813-.101 4.523-.101 4.523-2.063 6.812-3.58 1.554-5.766 2.463-9.5 1.063-3.398-2.804-6.467-5.872-9.5-9.063-3.189 1.385-5.075 2.977-7.375 5.563-2.354 2.41-3.511 3.396-6.75 4.562-3.463-.15-5.149-1.022-7.875-3.125-1.509-3.018-1.5-4.623-1-8 1.578-2.2 3.304-4.116 5.176-6.07 1.778-1.882 3.31-3.833 4.824-5.93l-1.934-1.898-2.504-2.477-2.496-2.46c-2.455-2.573-2.995-3.508-3.379-7.04C71 194 71 194 72.564 191.625 75.945 189.37 77.989 189.55 82 190ZM116 112c1.875 1.063 1.875 1.063 3 3 .884 6.59.884 6.59-1.194 9.904-1.753 1.985-3.59 3.807-5.517 5.623l-2.07 2.044a700.584 700.584 0 0 1-6.594 6.367 2526.565 2526.565 0 0 0-4.43 4.345 1106.03 1106.03 0 0 1-9.778 9.474c-2.05 1.798-3.458 2.25-6.167 2.743-3.862-.594-5.241-1.912-7.59-4.969a167.662 167.662 0 0 1-6.097-10.094c-.367-.636-.734-1.273-1.111-1.93-2.273-4.243-2.85-6.88-1.452-11.507 1.6-2.32 2.728-2.9 5.375-3.875 3.575-.17 4.862.608 7.625 2.875 1.549 2.268 2.748 4.542 4 7 3.432-1.473 5.6-3.39 8.188-6.063l2.367-2.414L97 122c1.6-1.65 3.203-3.297 4.813-4.938l2.144-2.214c4.09-3.699 6.668-4.335 12.043-2.848Z"/></svg>