<svg xmlns="http://www.w3.org/2000/svg" width="512" height="512" fill="white"><path d="m195.671 10.807 3.6-.049c5.432-.044 10.863-.085 16.295-.108a899.02 899.02 0 0 0 8.607-.082c3.465-.05 6.93-.074 10.394-.081a469.02 469.02 0 0 0 5.883-.08l3.62.01 3.185-.025C250 11 250 11 252.337 13.375c1.845 2.912 2.193 4.512 2.272 7.926l.098 2.959.043 3.052.09 3.112c.07 2.525.123 5.05.16 7.576l1.706.531c10.695 3.365 20.83 6.79 30.58 12.38 2.568 1.336 2.568 1.336 4.769.585 2.566-1.974 4.76-4.165 7.007-6.496 6.564-6.79 6.564-6.79 11.625-7.563 3.733.094 5.396 1.13 8.114 3.638l2.105 1.93a515.48 515.48 0 0 1 9.586 9.354l2.037 2.034c1.404 1.404 2.807 2.809 4.21 4.215 2.148 2.154 4.302 4.302 6.456 6.45l4.11 4.114 1.947 1.941 1.802 1.812 1.582 1.584c2.303 2.518 3.331 4.305 3.926 7.678-.81 5.498-3.706 8-7.562 11.813l-2.246 2.285A527.582 527.582 0 0 1 341 102l.81 1.665c1.215 2.505 2.421 5.013 3.627 7.522l1.276 2.62 1.22 2.548 1.127 2.333c.987 2.426 1.507 4.734 1.94 7.312l1.687-1.277c4.97-3.567 9.052-6.238 15.313-5.723 7.31 1.413 11.525 4.436 15.827 10.63l1.712 2.858 1.979 3.28 2.107 3.544A3015.474 3015.474 0 0 1 399 155l1.19 2.001c3.577 6.019 7.15 12.04 10.716 18.064a2303.73 2303.73 0 0 0 15.719 26.122c6.092 9.983 12.05 20.037 17.94 30.14a1658.757 1658.757 0 0 0 16.863 28.21c6.17 10.114 12.235 20.6 18.266 30.482 4.322 7.304 8.662 14.596 13.076 21.844l1.167 1.917c1.815 2.978 3.634 5.953 5.458 8.925A921.523 921.523 0 0 1 505 332l1.788 2.997c4.572 7.959 5.883 14.318 3.614 23.394-2.357 5.744-6.995 8.858-12.402 11.609-2.877.87-5.453 1.127-8.452 1.131l-2.701.012-2.955-.003-3.149.01c-3.493.008-6.985.01-10.478.011l-7.5.015c-6.8.013-13.6.02-20.399.024-4.247.003-8.494.007-12.74.012-11.761.012-23.523.022-35.284.026h-4.566l-4.586.002h-2.298c-12.284.005-24.568.022-36.852.046-12.615.023-25.23.036-37.847.037-7.081 0-14.163.007-21.244.025-6.662.017-13.323.018-19.985.01-2.444-.001-4.889.003-7.333.013-3.339.013-6.677.007-10.015-.004l-2.928.025c-6.696-.049-12.599-.82-17.93-5.26-5.095-6.264-6.952-10.333-7.121-18.437.478-3.546 1.919-6.438 3.363-9.695l-3.15-.028c-3.861-.04-7.722-.106-11.584-.18-1.67-.028-3.34-.049-5.01-.063a575.93 575.93 0 0 1-7.21-.12l-2.257-.003c-3.461-.098-5.435-.338-8.23-2.457-2.335-3.218-2.703-5.95-2.875-9.817l-.127-2.705-.12-2.815-.13-2.85c-.106-2.32-.208-4.64-.307-6.962l-3.375-1.031c-8.936-2.813-17.29-5.955-25.496-10.516-3.378-1.94-3.378-1.94-7.149-2.211-3.41 1.305-5.64 4.156-8.105 6.758-6.503 6.768-6.503 6.768-11.406 7.596-6.301-.108-9.837-4.88-13.965-9.135l-2.649-2.647a881.366 881.366 0 0 1-6.889-7.007 483.285 483.285 0 0 0-4.24-4.265c-2.735-2.72-5.45-5.46-8.16-8.206l-2.56-2.558-2.348-2.425-2.073-2.113c-1.97-2.784-2.362-4.857-2.585-8.24 2.912-7.424 9.333-12.597 15-18-1.311-3.424-2.809-6.716-4.412-10.013C84 216.161 84 216.161 84 208l-2.048.048c-3.067.062-6.134.101-9.202.14l-3.223.076-3.105.029-2.857.048c-3.047-.405-4.37-1.216-6.565-3.341-1.022-3.065-1.139-5.19-1.161-8.402l-.03-3.348-.012-3.617-.017-3.718c-.01-2.597-.016-5.195-.02-7.792-.01-3.975-.041-7.95-.073-11.924l-.015-7.566-.038-3.605.01-3.367-.011-2.954c.436-3.213 1.473-5.097 3.367-7.707 2.557-1.279 4.367-1.113 7.227-1.098l3.125.01 3.273.025 3.297.014c2.693.012 5.385.028 8.078.049l.301-1.847c1.138-6.346 2.99-11.947 5.574-17.84l1.027-2.432c1.613-3.757 3.29-7.259 5.48-10.713 1.893-2.903 1.893-2.903 1.212-5.266-2.645-3.156-5.599-5.946-8.606-8.748C86.03 90.311 83.948 88.034 83 84c.379-4.683 1.334-6.957 4.662-10.245l2.346-2.355 2.55-2.482 2.605-2.59c2.747-2.726 5.51-5.433 8.274-8.14 1.859-1.843 3.716-3.686 5.573-5.53a2649.416 2649.416 0 0 1 12.276-12.098c2.366-2.153 3.625-2.546 6.839-3.06 6.27.81 9.616 5.035 13.762 9.559l1.8 1.941 1.575 1.812c1.707 1.424 1.707 1.424 4.058 1.075 3.176-1.051 5.925-2.482 8.867-4.075 8.247-4.326 16.94-7.066 25.813-9.812l.044-1.74c.075-2.63.172-5.257.268-7.885l.069-2.738c.21-5.229.668-9.134 3.619-13.637 2.654-1.327 4.7-1.156 7.671-1.193ZM202 28c-.21 6.776-.21 6.776-.388 13.552l-.1 2.561-.08 2.619c-.523 2.744-1.211 3.612-3.432 5.268-2.734.85-5.411 1.578-8.188 2.25-13.321 3.478-25.078 8.955-36.726 16.246-3.422 1.668-5.334 2.05-9.086 1.504-2.09-1.285-2.09-1.285-3.938-3.063l-2.027-1.914L136 65l-2.066-2.023C132.273 61.333 130.633 59.67 129 58c-5.809 4.819-11.13 10.013-16.438 15.375l-2.505 2.52A3839.5 3839.5 0 0 0 104 82c3.11 3.716 6.177 7.283 9.812 10.5 2.311 2.331 3.238 3.623 4.5 6.75-.391 4.697-2.074 7.472-4.433 11.5-7.219 12.486-11.743 25.317-15.342 39.251-.452 1.684-.986 3.345-1.537 4.999-2.854 1.08-5.736 1.18-8.766 1.316l-2.43.116-3.054.13L73 157v34c6.028.288 6.028.288 12.055.568 4.069.204 7.972.453 11.945 1.432l.445 1.773c.807 3.09 1.672 6.158 2.555 9.227l.57 1.981c3.471 11.815 8.363 22.374 14.38 33.106L116 241l1.134 2.037c1.47 3.33.836 5.51-.134 8.963-1.92 2.613-4.179 4.75-6.563 6.937l-1.865 1.784c-1.51 1.44-3.04 2.862-4.572 4.279 4.819 5.809 10.013 11.13 15.375 16.437l2.52 2.506c2.032 2.022 4.068 4.04 6.105 6.057 3.737-3.152 7.416-6.29 10.812-9.813 2.606-2.7 4.012-4.045 7.844-4.507 4.4.421 7.134 2.16 10.844 4.445 11.04 6.468 22.114 11.1 34.548 14.14 6.687 1.69 6.687 1.69 8.952 4.735.432 2.36.432 2.36.512 5.105l.107 2.979.068 3.103.104 3.14c.083 2.557.152 5.114.209 7.673 17.165 3.144 17.165 3.144 34 0 8.639-6.409 12.937-18.492 17.162-28.016 2.361-5.257 5.38-10.041 8.525-14.859 3.064-4.262 3.064-4.262 4.313-9.125l-3.688 1.25c-1.77.586-3.54 1.17-5.312 1.75l-3.105 1.02-3.27 1.042-3.023.973c-9.123 2.444-17.855 3.327-27.29 3.277-1.141-.005-2.283-.01-3.46-.017-29.202-.417-53.538-12.442-74.184-32.568-19.025-20.189-28.336-48.023-27.647-75.484 1.303-28.154 13.04-54.766 33.893-74C173.374 75.137 201.324 68.201 233 70c20.898 2.398 41.536 11.83 57 26l2.77 2.488C313.205 117.78 322.25 143.547 325 171c10.763-12.142 10.763-12.142 15.176-27-.973-4.294-2.354-8.007-4.176-12l-1.155-2.643c-4.796-11.176-4.796-11.176-11.158-21.474-1.775-3.034-2.423-5.334-2.234-8.871 1.08-3.971 4.061-6.349 7.047-9.012l1.879-1.77A309.54 309.54 0 0 1 335 84c-1.563-3.766-3.906-6.136-6.79-8.984l-1.403-1.396a1272.473 1272.473 0 0 0-4.432-4.37l-3.008-2.98c-2.45-2.429-4.907-4.851-7.367-7.27-3.821 1.769-6.193 4.02-9.125 7.062-5.574 5.765-5.574 5.765-9.488 6.286-4.641-.477-7.647-2.507-11.575-4.91-12.02-7.012-24.843-12.084-38.562-14.637-2.902-1.033-3.642-2.203-5.25-4.801-.432-2.29-.432-2.29-.512-4.766l-.1-2.43-.076-3.054L237 28h-35Zm-49.667 88.42c-15.36 18.19-22.233 40.838-21.153 64.521C133.377 203.522 142.993 222.18 159 238l2.207 2.238c16.76 16.013 39.195 22.284 61.818 22.186 8.847-.206 16.598-1.55 24.975-4.424l3.148-1.063c22.642-8.557 39.964-26.107 50.125-47.824 9.304-21.183 9.162-45.342 1.407-66.926-9.33-23.248-26.942-40.288-49.666-50.362-35.646-14.607-75.39-3.664-100.68 24.596ZM366 137c-5.17 6.362-9.047 14.013-13.188 21.062l-2.084 3.532c-1.477 2.502-2.954 5.005-4.43 7.509a8811.085 8811.085 0 0 1-11.736 19.834l-1.21 2.04a2889.679 2889.679 0 0 1-17.894 29.732c-5.722 9.39-11.357 18.828-16.958 28.291a2666.284 2666.284 0 0 1-18 30 2738.768 2738.768 0 0 0-20.581 34.37c-3.686 6.243-7.405 12.455-11.267 18.59-.662 1.06-1.324 2.12-2.007 3.21a517.848 517.848 0 0 1-3.722 5.841l-1.626 2.594-1.427 2.224c-1.12 2.793-.818 4.35.13 7.171 2.3 1.15 3.587 1.126 6.145 1.129l2.647.01 2.926-.005 3.095.007c3.444.006 6.888.005 10.332.004l7.38.01c6.001.008 12.003.011 18.004.012 4.876 0 9.752.003 14.628.006 13.813.009 27.625.013 41.438.012h4.518c12.098 0 24.195.01 36.292.023 12.41.015 24.82.022 37.23.02 6.972 0 13.944.003 20.916.014 6.553.01 13.106.01 19.659.003 2.412-.002 4.823 0 7.235.007 3.279.008 6.558.003 9.837-.005l2.926.016 2.647-.014h2.296c2.096-.092 2.096-.092 3.849-2.249.607-4.389-.746-6.812-3.05-10.488l-2.029-3.28c-.363-.576-.725-1.152-1.1-1.745-1.557-2.471-3.09-4.957-4.624-7.443-.814-1.318-1.629-2.636-2.445-3.952-4.56-7.367-8.97-14.821-13.377-22.28l-4.82-8.136-1.18-1.991A3344.097 3344.097 0 0 0 450.5 274.5a4554.159 4554.159 0 0 1-15.657-26.257 3117.879 3117.879 0 0 0-20.384-33.951c-6.13-10.056-12.153-20.172-18.15-30.306-7.804-13.18-15.731-26.282-23.71-39.356a166.201 166.201 0 0 1-3.183-5.473L368 137h-2Z"/><path d="M25.292 318.684c2.136.003 4.27-.02 6.405-.045 1.37-.003 2.741-.003 4.112-.002l3.743-.01c5.096.551 8.336 2.14 11.76 5.936C53.928 328.34 54.1 330.416 54 335l2.747-1.146c3.418-1.423 6.841-2.835 10.266-4.243a1160.52 1160.52 0 0 0 4.41-1.83c17.694-7.381 35.373-12.901 54.315-5.775 8.098 3.56 15.597 8.48 23.126 13.087 4.963 3.018 9.988 5.928 15.011 8.845l5.977 3.488a3319.187 3319.187 0 0 0 16.071 9.285c9.113 5.242 18.218 10.496 27.264 15.852l2.41 1.406c10.835 6.463 18.219 14.216 21.888 26.589.558 2.647.626 5.022.585 7.723l-.03 2.69L238 413l3.15-.846c9.869-2.65 19.738-5.298 29.608-7.943 5.073-1.36 10.145-2.72 15.216-4.083 4.908-1.318 9.817-2.634 14.725-3.948 1.86-.498 3.718-.998 5.577-1.498A1828.612 1828.612 0 0 1 324 390l2.406-.622c2.288-.584 4.58-1.153 6.874-1.717l2.015-.515c10.372-2.488 20.35-.93 29.553 4.55 7.758 5.78 13.538 13.618 15.152 23.304.815 10.29.229 19.201-5.988 27.727-8.271 9.684-16.745 13.166-28.887 16.382l-4.214 1.15a2142.21 2142.21 0 0 1-11.492 3.094c-3.268.874-6.534 1.756-9.8 2.638a9614.595 9614.595 0 0 1-31.823 8.515c-7.596 2.022-15.19 4.05-22.784 6.077l-5.626 1.501a9598.294 9598.294 0 0 0-55.924 15.103c-1.592.434-3.182.868-4.773 1.305-7.082 1.928-13.378 2.742-20.689 2.82l-2.637.088c-13.826.132-25.411-6.1-37.3-12.4-1.457-.762-2.914-1.522-4.372-2.282-9.256-4.84-18.464-9.771-27.577-14.874-15.772-8.776-28.695-13.528-46.548-8.5C57 464 57 464 54 464l.14 1.758c.262 5.661-.312 8.776-4.14 13.242-5.852 5.143-12.68 4.254-20.031 4.295a337.14 337.14 0 0 0-4.286.062c-14.832.307-14.832.307-21.683-4.357-3.784-4.761-4.124-9.799-4.134-15.717l-.013-3.458.002-3.766-.01-3.988c-.01-3.603-.012-7.206-.012-10.81l-.006-6.76c-.009-7.866-.013-15.733-.012-23.6 0-7.323-.01-14.646-.026-21.97-.013-6.296-.018-12.592-.018-18.887 0-3.757-.002-7.513-.013-11.27-.012-4.192-.007-8.383 0-12.574-.007-1.239-.012-2.478-.018-3.754.05-13.759.05-13.759 4.572-19.258 6.356-5.174 13.18-4.528 20.98-4.504ZM17 336v130h20V336H17Zm37 18v92l13-2c16.18-1.442 29.629 3.177 43.591 10.712a560.422 560.422 0 0 0 8.272 4.311c9.223 4.745 18.41 9.53 27.455 14.607 17.411 9.752 31.25 13.134 50.949 7.883l3.917-1.115a1516.166 1516.166 0 0 0 15.852-4.355c4.07-1.132 8.148-2.24 12.225-3.35a7229.98 7229.98 0 0 0 18.135-4.965 5029.114 5029.114 0 0 1 36.424-9.85 3375503.13 3375503.13 0 0 0 16.784-4.482c7.909-2.113 15.816-4.229 23.722-6.35 1.571-.422 3.143-.843 4.714-1.263 4.657-1.246 9.31-2.506 13.96-3.783l3.088-.842 2.683-.761 2.23-.627c5.116-1.97 8.224-5.445 10.936-10.082 1.5-5.206 2.309-9.786.114-14.899-3.015-5.116-6.394-8.52-11.801-11.101-7.646-1.618-15.462.967-22.847 2.964l-3.088.818c-3.342.888-6.682 1.785-10.022 2.682l-6.995 1.865c-4.874 1.3-9.746 2.604-14.618 3.911a9442.108 9442.108 0 0 1-18.747 5.007c-4.81 1.281-9.617 2.566-14.425 3.853-2.304.616-4.61 1.232-6.915 1.846-3.215.857-6.43 1.72-9.643 2.585l-2.889.766-2.654.718-2.3.616c-3.428 1.108-5.594 1.971-7.732 4.931-5.325 6.166-13.254 10.072-21.349 10.969-16.232.933-26.862-4.42-40.438-12.665a637.033 637.033 0 0 0-8.701-5.109l-3.203-1.854a5661.67 5661.67 0 0 0-6.222-3.592C132.051 415.05 132.051 415.05 129 412c-.465-7.2-.465-7.2 1.125-9.937 2.893-1.64 4.482-2.063 7.875-2.063 7.478 2.98 14.392 7.508 21.266 11.646 2.371 1.424 4.753 2.832 7.133 4.24 4.66 2.757 9.3 5.538 13.906 8.384 8.368 5.069 15.576 9.139 25.695 6.73 6.515-2.557 10.83-7.279 14.312-13.25 1.626-6.503 1.596-12.9-1.898-18.76-4.951-6.971-12.557-11.07-19.914-15.052a4728.858 4728.858 0 0 1-6.16-3.415l-3.18-1.758c-5.073-2.833-10.086-5.765-15.098-8.702-.988-.58-1.977-1.158-2.996-1.754l-6.028-3.53c-6.113-3.58-12.23-7.152-18.354-10.713-4.726-2.75-9.442-5.513-14.133-8.32l-2.59-1.536a513.13 513.13 0 0 1-4.724-2.836C101.535 327.386 76.657 344.388 54 354ZM271 113c17.48 15.043 26.457 34.7 28.285 57.566.606 23.156-7.615 43.393-23.473 60.184-16.15 15.473-36.2 22.787-58.41 22.604-21.23-.568-41.248-9.544-56.018-24.824-15.731-17.385-21.445-37.803-20.763-60.74 1.088-20.919 11.171-39.259 26.129-53.602C196.899 88.474 240.256 88.498 271 113Zm-99.867 22.063c-11.58 14.4-14.716 30.966-13.133 48.937 2.435 16.509 12.12 30.127 24.938 40.375 14.963 10.331 31.178 13.82 48.992 11.004 17.192-4.021 31.58-13.881 41.01-28.858 9.011-15.18 11.216-31.82 7.158-48.939-5.263-17.175-16.28-30.401-31.887-39.144-27.811-13.465-56.873-5.694-77.078 16.624ZM382.277 174.477c4.66 3.8 8.203 7.64 9.723 13.523.138 2.536.198 4.994.17 7.527-.006.743-.01 1.485-.015 2.25-.11 9.157-.73 18.282-1.362 27.414l-.382 5.654c-.266 3.914-.536 7.828-.81 11.741-.348 4.999-.68 9.999-1.008 14.999-.256 3.877-.524 7.754-.795 11.63-.127 1.844-.25 3.688-.37 5.532-.167 2.574-.35 5.147-.537 7.72l-.137 2.269c-.451 5.864-1.608 11.694-5.473 16.323l-1.781 1.378-1.781 1.434C376 305 376 305 373 306l1.54.848c6.331 3.687 10.897 7.617 13.897 14.402 1.06 7.065.815 13.354-2.875 19.625-4.207 5.58-9.488 8.49-16.37 9.563-6.187.274-11.19-.695-16.192-4.438-4.537-4.264-7.586-8.514-8.336-14.832-.097-7.398.495-13.148 5.762-18.66 2.935-2.564 6.18-4.611 9.574-6.508l-1.61-.848-2.14-1.214-2.11-1.16c-5.382-4.47-6.372-8.992-7.046-15.735a537.25 537.25 0 0 1-.594-8.856c-.112-1.625-.226-3.25-.341-4.875-.256-3.659-.501-7.319-.74-10.979-.47-7.168-.982-14.332-1.493-21.497-.728-10.266-1.453-20.533-2.156-30.8l-.237-3.37c-1.39-20.489-1.39-20.489 5.162-28.822 9.63-9.2 24.34-10.656 35.582-3.367ZM360 190c-2.7 4.051-1.999 7.372-1.645 12.027l.186 2.79c.205 3.04.426 6.08.647 9.12.145 2.106.29 4.211.433 6.316.3 4.374.605 8.747.915 13.12.455 6.452.882 12.904 1.304 19.357.197 3.001.396 6.002.594 9.002l.379 5.766c.176 2.68.357 5.36.539 8.041l.154 2.386c.26 3.764.637 7.397 1.494 11.075h4c.787-10.875 1.57-21.75 2.347-32.626.36-5.051.723-10.102 1.09-15.153.353-4.882.703-9.764 1.05-14.647.132-1.855.266-3.71.402-5.564.413-5.668.79-11.336 1.111-17.01l.221-3.752.111-3.233.105-2.694c-.596-3.167-1.966-4.327-4.437-6.321-4.74-1.513-7.089-1.042-11 2Zm3.125 134.063c-1.652 2.844-.882 4.839-.125 7.937l6 1c1.736-1.675 1.736-1.675 3-4-.336-2.757-.336-2.757-2-5-2.85-1.17-4.16-1.476-6.875.063Z"/><path d="M224 126c2.375 1.688 2.375 1.688 4 4 .25 3.25.25 3.25 0 6l2.125.25c5.692 1.485 9.676 4.892 12.875 9.75 1.29 3.352 1.085 4.728 0 8.188-2 2.812-2 2.812-5.313 4.375-4.392.52-6.015-.196-9.687-2.563l-1.938-1.688c-3.038-1.933-5.54-1.568-9.062-1.312-3.118.646-3.118.646-4 3-.5 2.958-.5 2.958 0 6 3.682 2.835 6.88 3.46 11.438 3.938 7.96 1.111 12.33 4.116 17.304 10.289 3.95 5.568 4.107 12.188 3.258 18.773-2.282 7.398-6.29 12.196-13 16l-3 1c-.455 2.016-.91 4.032-1.355 6.05-.645 1.95-.645 1.95-2.833 4.012-3.69 1.231-6.067.909-9.812-.062-1.875-1.125-1.875-1.125-3-3-.688-3.688-.688-3.688-1-7l-3.188-.75c-4.72-1.364-7.642-3.716-10.625-7.625-1.453-3.213-1.696-5.132-1.187-8.625 1.438-2.875 1.438-2.875 4-5 3.14-.739 5.857-.716 9 0a381.113 381.113 0 0 1 6 5c3.872.845 7.049.57 10.5-1.5l1.5-1.5-1-7c-3.813-1.726-7.162-2.332-11.313-2.75-7.856-1.138-11.852-4.117-17.062-9.875-3.154-6.552-4.472-13.489-2.688-20.625 1.885-5.178 4.915-9.148 9.063-12.75l3.25-1.5c3.63-1.98 3.785-3.834 4.984-7.621.766-1.879.766-1.879 3.078-3.941 3.421-1.194 5.244-1.037 8.688.062Z"/></svg>